<mxfile host="app.diagrams.net" modified="2023-05-29T17:22:07.466Z" agent="Mozilla/5.0 (Windows NT 10.0; Win64; x64) AppleWebKit/537.36 (KHTML, like Gecko) Chrome/113.0.0.0 Safari/537.36" version="21.3.2" etag="nV3X1ahb84Kk8X7vUv_n" type="github">
  <diagram name="Page-1" id="6FOyVSHQaAr4kdhzRgVr">
    <mxGraphModel>
      <root>
        <mxCell id="0" />
        <mxCell id="1" parent="0" />
      </root>
    </mxGraphModel>
  </diagram>
</mxfile>
